<svg xmlns="http://www.w3.org/2000/svg" style="display: none;">
  
    <symbol id="mipl-sl-icon-navigate" viewBox="0 0 512 512">
      <path d="m480 32l-448 192 256 0 0 256z"/>
    </symbol>
  
    <symbol id="mipl-sl-icon-time" viewBox="0 0 512 512">
      <path d="m256 43c-118 0-213 96-213 213 0 117 95 213 213 213 118 0 213-96 213-213 0-117-96-213-213-213z m0 383c-94 0-170-76-170-170 0-94 76-170 170-170 94 0 170 76 170 170 0 94-76 170-170 170z m11-276l-32 0 0 127 112 67 16-26-96-57z"/>
    </symbol>
  
    <symbol id="mipl-sl-icon-google" viewBox="0 0 512 512">
      <path d="m326 276l-18-14 0 0c-6-5-10-8-10-15 0-7 5-12 11-17l0-1c20-15 45-34 45-74 0-27-12-45-24-58l13 0 61-33-134 0c-25 0-62 3-94 29l0 0c-22 18-35 44-35 71 0 21 8 42 24 57 21 22 48 26 67 26 1 0 3 0 4 0-1 3-1 6-1 10 0 11 4 20 8 27-24 1-58 6-85 22-39 22-42 56-42 65 0 39 35 77 115 77 92 0 140-50 140-99 0-37-23-56-45-73z m-126-136c0-13 4-24 10-31 6-8 18-13 29-13 20 0 33 15 40 27 9 16 15 37 15 54 0 5 0 20-10 30-7 7-19 11-29 11-20 0-33-14-40-27-11-17-15-38-15-51z m122 228c0 27-26 44-66 44-48 0-81-20-81-51 0-26 22-37 38-42 19-6 45-8 50-8 4 0 6 0 9 1 37 25 50 36 50 56z"/>
    </symbol>
  
    <symbol id="mipl-sl-icon-facebook" viewBox="0 0 512 512">
      <path d="m288 192l0-38c0-17 4-26 31-26l33 0 0-64-56 0c-68 0-91 31-91 85l0 43-45 0 0 64 45 0 0 192 83 0 0-192 56 0 8-64z"/>
    </symbol>
  
    <symbol id="mipl-sl-icon-twitter" viewBox="0 0 512 512">
      <path d="m492 110c-17 7-36 12-56 15 20-12 36-31 43-54-19 11-39 19-61 24-18-19-43-31-71-31-54 0-97 43-97 97 0 8 1 15 3 22-81-4-152-43-200-101-8 14-13 31-13 48 0 34 17 64 43 81-16 0-31-5-44-12 0 0 0 1 0 1 0 47 33 86 78 95-8 2-17 4-26 4-6 0-12-1-18-2 12 38 48 66 91 67-34 26-75 42-121 42-8 0-15-1-23-2 43 28 94 44 148 44 179 0 276-148 276-276 0-4 0-8 0-12 19-14 35-31 48-50z"/>
    </symbol>
  
    <symbol id="mipl-sl-icon-whatsapp" viewBox="0 0 512 512">
      <path d="m260 32c-121 0-220 98-220 218 0 41 12 80 32 113l-40 117 122-39c31 18 68 27 106 27 122 0 220-97 220-218 0-120-98-218-220-218z m109 301c-5 13-28 25-38 25-11 1-11 8-67-16-57-25-90-84-93-88-3-4-22-31-21-58 1-28 16-41 22-46 5-5 11-6 15-7 4 0 7 0 10 0 4 1 9 0 13 11 4 11 14 39 16 42 1 3 2 6 0 10-2 4-3 6-6 9-3 3-6 7-9 9-3 3-6 6-3 12 3 5 14 24 30 39 21 20 38 27 44 30 5 3 9 2 12-1 4-4 15-16 19-21 4-6 7-5 13-3 5 2 32 17 37 20 6 3 9 4 11 7 1 2 1 13-5 26z"/>
    </symbol>
  
    <symbol id="mipl-sl-icon-skype" viewBox="0 0 512 512">
      <path d="m437 297c3-13 4-26 4-39 0-100-82-180-183-180-11 0-21 0-31 2-17-10-36-16-57-16-58 0-106 47-106 105 0 19 5 37 15 53-3 11-4 24-4 36 0 100 82 181 183 181 12 0 23-1 34-3 15 8 32 12 50 12 58 0 106-47 106-105 0-16-4-32-11-46z m-85 47c-9 12-21 22-37 28-16 7-36 10-58 10-26 0-48-5-65-14-12-6-23-15-30-26-8-11-12-22-12-33 0-6 3-12 8-17 5-4 11-7 19-7 6 0 11 2 16 6 4 3 8 9 10 15 4 8 7 14 11 19 4 4 9 8 15 11 7 4 16 5 27 5 15 0 27-3 37-9 9-6 13-14 13-23 0-7-2-13-7-17-5-5-11-8-19-11-9-2-20-5-34-8-19-4-35-9-48-14-13-5-24-13-31-23-8-9-12-22-12-36 0-14 4-26 12-36 8-11 20-19 36-25 15-5 33-8 53-8 17 0 31 2 43 5 12 4 22 9 30 15 8 7 14 13 18 20 4 7 6 14 6 21 0 6-3 12-8 17-5 5-11 8-18 8-7 0-12-2-16-5-4-3-7-8-11-14-5-9-10-16-16-20-7-5-17-7-31-7-13 0-24 2-32 7-7 5-11 11-11 18 0 4 1 7 4 10 2 3 6 6 11 8 4 3 9 5 14 6 5 1 14 3 26 6 14 3 28 7 40 10 12 4 23 9 31 15 9 5 16 12 21 21 5 9 7 19 7 32 1 15-3 29-12 40z"/>
    </symbol>
  
    <symbol id="mipl-sl-icon-instagram" viewBox="0 0 512 512">
      <path d="m449 112c0-26-22-47-48-47l-289 0c-26 0-47 21-47 47l0 289c0 26 21 48 47 48l289 0c26 0 48-22 48-48z m-192 64c44 0 80 36 80 80 0 44-36 80-80 80-44 0-80-36-80-80 0-44 36-80 80-80z m160-15c0 8-8 16-16 16l-48 0c-9 0-16-8-16-16l0-48c0-9 7-16 16-16l48 0c8 0 16 7 16 16z m-15 256l-288 0c-9 0-17-9-17-17l0-175 53 0c-3 10-5 20-5 31 0 30 12 58 33 79 21 21 49 33 79 33 30 0 58-12 79-33 21-21 33-49 33-79 0-11-2-21-5-31l53 0 0 175c0 8-7 17-15 17z"/>
    </symbol>
  
    <symbol id="mipl-sl-icon-linkedin" viewBox="0 0 512 512">
      <path d="m417 64l-320 0c-18 0-33 13-33 30l0 321c0 17 15 33 33 33l320 0c18 0 31-16 31-33l0-321c0-17-13-30-31-30z m-234 320l-55 0 0-171 55 0z m-26-197l0 0c-18 0-29-13-29-29 0-17 12-30 30-30 18 0 29 13 29 30 0 16-11 29-30 29z m227 197l-55 0 0-93c0-23-8-38-28-38-15 0-24 10-28 20-2 4-2 9-2 14l0 97-55 0 0-171 55 0 0 24c8-12 21-28 50-28 36 0 63 24 63 75z"/>
    </symbol>
  
    <symbol id="mipl-sl-icon-pinterest" viewBox="0 0 512 512">
      <path d="m256 32c-124 0-224 100-224 224 0 92 55 171 134 205 0-15 0-34 4-51 4-18 29-122 29-122 0 0-7-15-7-36 0-33 19-58 43-58 20 0 30 16 30 34 0 20-13 51-20 79-5 24 12 44 36 44 42 0 71-55 71-120 0-49-33-85-94-85-67 0-110 50-110 107 0 19 6 33 15 44 4 5 5 7 3 12-1 4-3 14-4 18-2 6-7 8-12 6-31-13-46-47-46-86 0-63 54-140 161-140 85 0 141 62 141 129 0 88-49 153-121 153-24 0-46-13-54-28 0 0-13 52-16 62-5 17-14 34-23 48 21 6 42 9 64 9 124 0 224-100 224-224 0-124-100-224-224-224z"/>
    </symbol>
  
    <symbol id="mipl-sl-icon-vimeo" viewBox="0 0 512 512">
      <path d="m477 114c-5-23-18-39-41-46-23-8-65-5-94 17-30 21-47 59-54 83 15-6 24-7 39-7 15 1 25 12 25 26 1 10 0 18-3 27-11 29-28 57-48 81-3 4-6 7-10 10-10 8-19 6-25-5-6-9-9-19-12-29-13-40-17-81-24-122-4-19-7-40-18-57-12-17-29-24-50-22-15 2-37 18-48 27 0 0-56 47-82 71l21 27c0 0 18-12 28-18 6-4 12-4 17 0 5 4 10 9 12 14 6 11 12 22 15 34 13 44 26 88 38 133 6 23 14 44 28 63 19 27 39 33 71 22 25-9 46-26 66-44 33-30 59-65 85-101 21-28 38-56 52-87 14-31 19-64 12-97z"/>
    </symbol>
  
    <symbol id="mipl-sl-icon-youtube" viewBox="0 0 512 512">
      <path d="m509 149c0-45-33-81-74-81-56-3-112-4-170-4-3 0-6 0-9 0-3 0-6 0-9 0-58 0-114 1-170 4-40 0-73 36-73 81-3 36-4 71-4 107 0 35 1 71 3 107 0 45 34 81 74 81 59 3 118 4 179 4 61 0 120-1 179-4 40 0 74-36 74-81 2-36 3-72 3-107 0-36-1-71-3-107z m-302 205l0-197 145 99z"/>
    </symbol>
  
    <symbol id="mipl-sl-icon-checkbox-outline" viewBox="0 0 512 512">
      <path d="m405 107l0 298-298 0 0-298 298 0m0-43l-298 0c-24 0-43 19-43 43l0 298c0 24 19 43 43 43l298 0c24 0 43-19 43-43l0-298c0-24-19-43-43-43z"/>
    </symbol>
  
    <symbol id="mipl-sl-icon-checkbox-checked-outline" viewBox="0 0 512 512">
      <path d="m169 215l-30 30 96 96 213-213-30-30-183 183z m236 190l-298 0 0-298 213 0 0-43-213 0c-24 0-43 19-43 43l0 298c0 24 19 43 43 43l298 0c24 0 43-19 43-43l0-170-43 0z"/>
    </symbol>
  
    <symbol id="mipl-sl-icon-call" viewBox="0 0 512 512">
      <path d="m427 331c-27 0-53-5-76-12-8-2-16-1-21 5l-47 47c-61-31-110-80-141-141l47-47c5-5 7-13 5-21-8-24-13-50-13-77 0-11-9-21-21-21l-75 0c-11 0-21 10-21 21 0 201 162 363 363 363 11 0 21-10 21-21l0-75c0-12-10-21-21-21z"/>
    </symbol>
  
    <symbol id="mipl-sl-icon-locate" viewBox="0 0 512 512">
      <path d="m256 176c-44 0-80 36-80 80 0 44 36 80 80 80 44 0 80-36 80-80 0-44-36-80-80-80z m191 59c-10-89-81-160-170-170l0-33-42 0 0 33c-89 10-160 81-170 170l-33 0 0 42 33 0c10 89 81 160 170 170l0 33 42 0 0-33c89-10 160-81 170-170l33 0 0-42z m-191 170c-82 0-149-67-149-149 0-82 67-149 149-149 82 0 149 67 149 149 0 82-67 149-149 149z"/>
    </symbol>
  
    <symbol id="mipl-sl-icon-email" viewBox="0 0 512 512">
      <path d="m67 149c11 6 164 89 170 92 5 3 11 4 20 4 9 0 15-1 21-4 5-3 158-86 169-92 4-2 11-6 13-10 2-8-1-11-12-11l-382 0c-11 0-14 3-11 11 1 4 8 8 12 10z m389 4c-8 4-82 57-131 88l82 93c2 2 3 4 2 5-1 2-4 1-6-1l-98-83c-15 9-26 16-27 17-8 4-14 4-21 4-7 0-13 0-20-4-2-1-13-8-28-17l-98 83c-2 2-5 3-6 1-1-1 0-3 2-5l82-93c-49-31-123-84-132-88-8-4-9 1-9 5 0 4 0 205 0 205 0 9 14 21 24 21l371 0c9 0 21-12 21-21 0 0 0-201 0-205 0-4 1-9-8-5z"/>
    </symbol>
  
    <symbol id="mipl-sl-icon-map" viewBox="0 0 512 512">
      <path d="m473 137l-104-71c-5-3-11-3-15 0l-98 66-97-66c-4-3-10-3-15 0l-105 71c-4 3-7 8-7 14l0 281c0 6 3 11 8 14 4 3 10 3 15 0l97-66 97 66c5 3 10 3 15 0l97-66 97 66c3 1 5 2 8 2 2 0 5-1 7-2 4-3 7-8 7-14l0-281c0-6-2-11-7-14z m-338 216l-71 50 0-242 71-50z m32 0l0-123c1 1 2 2 3 2l10-13c-4-2-9-5-13-7l0-101 73 49 0 109c-5-2-11-5-16-8l-8 13c6 5 13 8 20 10l4-11 0 129z m105 49l0-114c0 0 1 0 1 0 3 0 6 0 9-1l-3-15c-2 0-5 0-7 0l0-112 73-49 0 119-5-5c-3 4-6 7-8 10-2 2-4 4-6 6l12 11c2-2 4-4 6-6 0-1 1-1 1-2l0 109z m176 0l-71-49 0-137c4-1 8-3 12-3l-4-16c-2 0-5 1-8 2l0-88 71 49z m-319-181c3-1-1-1 1-2l-5-15c-3 1-6 2-9 4-4 2-8 5-12 8l11 12c3-2 12-5 14-7z m168 45l7 15c6-4 13-8 19-13l-11-12c-5 4-10 8-15 10z m-198-10c2-6 4-11 7-16l-13-9c-5 7-7 14-9 20l0 1 15 5z m99-18c-1-1-2-3-3-4l-12 11c1 1 2 2 3 3 4 4 7 9 12 13l11-12c-4-3-7-7-11-11z m210-8l11-11 10 11 11-12-10-10 10-10-11-12-10 11-11-11-11 12 10 10-10 10z"/>
    </symbol>
  
    <symbol id="mipl-sl-icon-map-pin" viewBox="0 0 512 512">
      <path d="m256 32c-80 0-144 64-144 144 0 112 144 304 144 304 0 0 144-192 144-304 0-80-64-144-144-144z m0 191c-26 0-47-21-47-47 0-26 21-47 47-47 26 0 47 21 47 47 0 26-21 47-47 47z"/>
    </symbol>
  
    <symbol id="mipl-sl-icon-search" viewBox="0 0 512 512">
      <path d="m445 387l-85-86c14-24 21-51 21-78 0-88-71-159-158-159-88 0-159 71-159 159 0 88 71 159 159 159 28 0 55-8 80-23l84 86c2 2 5 3 7 3 3 0 6-1 8-3l43-44c4-4 4-10 0-14z m-222-261c53 0 96 43 96 97 0 53-43 97-96 97-54 0-97-44-97-97 0-54 43-97 97-97z"/>
    </symbol>
  
    <symbol id="mipl-sl-icon-home" viewBox="0 0 512 512">
      <path d="m448 288l-192-224-192 224 48 0 0 160 96 0 0-128 96 0 0 128 96 0 0-160z"/>
    </symbol>
  
    <symbol id="mipl-sl-icon-android-globe" viewBox="0 0 512 512">
      <path d="m256 48c-115 0-208 93-208 208 0 115 93 208 208 208 115 0 208-93 208-208 0-115-93-208-208-208z m-22 385c-39-5-76-22-104-51-34-34-52-78-52-126 0-43 15-83 42-116 1 9 3 18 2 25-1 23-4 38 10 58 6 8 7 19 10 28 2 9 13 14 20 19 14 11 28 24 43 34 10 6 16 9 13 22-2 10-3 16-8 24-1 3 6 20 9 23 7 7 15 14 23 21 12 10-2 24-8 39z m148-51c-26 26-58 43-92 49 4-12 13-23 21-29 8-6 16-16 20-25 4-8 9-15 14-23 7-11-18-27-26-31-18-7-31-18-47-29-11-8-34 4-47-1-17-8-32-21-47-33-16-12-15-25-15-43 12 1 30-3 38 7 3 3 11 17 17 12 5-4-3-20-5-24-5-12 12-16 20-24 11-11 34-27 33-34-2-8-24-29-37-26-2 1-18 18-22 21 0-6 1-11 1-17 0-4-7-7-7-10 1-6 17-16 22-21-3-2-13-10-16-9-7 3-15 5-22 8 0-2-1-5-1-7 14-6 29-11 45-13l14 5 10 12 10 10 9 3 14-13-4-9 0-8c27 4 53 14 76 29-5 1-9 1-14 2-2-1-5-2-7-3 7 14 13 28 20 42 8 15 24 31 27 46 3 19 1 36 3 57 2 21 23 45 23 45 0 0 10 3 19 2-8 31-24 59-47 82z"/>
    </symbol>
  
</svg>
